<svg width="14" height="20" viewBox="0 0 14 20" fill="none" xmlns="http://www.w3.org/2000/svg">
<path d="M6.45593 19.3987L0.225371 13.1681C-0.0751237 12.8676 -0.0751237 12.3805 0.225371 12.08L0.952066 11.3533C1.25205 11.0533 1.73823 11.0527 2.03892 11.352L7.00002 16.2899L11.9611 11.352C12.2618 11.0527 12.748 11.0533 13.0479 11.3533L13.7746 12.08C14.0751 12.3805 14.0751 12.8677 13.7746 13.1681L7.5441 19.3987C7.24361 19.6992 6.75643 19.6992 6.45593 19.3987Z" fill="#A2B4C3"/>
<path d="M7.54407 0.601282L13.7746 6.83188C14.0751 7.13237 14.0751 7.61955 13.7746 7.92001L13.0479 8.64671C12.748 8.94669 12.2618 8.94727 11.9611 8.64799L6.99998 3.71013L2.03892 8.64799C1.73823 8.94727 1.25205 8.94669 0.952066 8.64671L0.225371 7.92001C-0.0751234 7.61952 -0.0751234 7.13234 0.225371 6.83188L6.4559 0.601282C6.75639 0.300819 7.24357 0.300819 7.54407 0.601282Z" fill="#A2B4C3"/>
</svg>
